<svg id="Livello_1" data-name="Livello 1" xmlns="http://www.w3.org/2000/svg" version="1.1" viewBox="0 0 308 205"><defs><style>.cls-1{fill:#264653;}.cls-2{fill:#2a9c8e;}</style></defs><title>logotop</title><path class="cls-1" d="M153.29,111.94s-22.64,7.46-74.79,15.18l-39.89,5.57a9.71,9.71,0,0,1-8.13-2.49c-1.92-1.84-3.23-4.66-1.42-8.79a13.5,13.5,0,0,1,9-7.49c5.37-1.42,13.51-4.92,9.49-12.68,0,0-6.56-17.41-36.27-42.74,0,0,12.6-7.89,67.94,36.48C79.26,95,103.25,115.69,153.29,111.94Z"/><path class="cls-2" d="M88,91.54l68.19-18.39s16.73,18.53,21.11,21L148,57.32s-15.32,9.92-18.9,3.07c0,0-4.2-5.25,7.42-9.84l4.21-2.06S108.05,8.11,105.5,2.73c0,0,1.63-1.86,23.88,17.28l65.69,52.33L189,63.89s53.72-22.76,71.12-13c0,0-14.75,3.78-12,8.78,0,0,2.53,2.77,24.13-3.7,0,0,14.58,8.2,12.22,14.21,0,0-3.53,9.94-67.34,24.81,0,0-59.53,15-84.3,10.3C132.85,105.29,108,102.71,88,91.54Z"/><path class="cls-1" d="M33,187a2,2,0,0,1-1.32-1,4.2,4.2,0,0,1-.57-1.68,2.89,2.89,0,0,1,.22-1.56,1,1,0,0,1,1.08-.65c1,.07,2,.11,3.13.12s2.35,0,3.62-.07q2.91-3.75,5.93-7.63t5.86-7.48q2.84-3.6,5.21-6.65t4-5.23q-3.57,1.4-7,2.81t-6.27,2.64q-2.88,1.23-5.17,2.3L38,164.64c-.7.33-1.17.32-1.41,0a1.8,1.8,0,0,1-.26-1.35,5,5,0,0,1,.63-1.8,3.25,3.25,0,0,1,1.24-1.34c1.65-1,3.8-2.08,6.43-3.32s5.49-2.51,8.57-3.8,6.25-2.57,9.52-3.79,6.4-2.34,9.39-3.34,5.67-1.83,8.07-2.49a36.84,36.84,0,0,1,5.66-1.2.89.89,0,0,1,1,.7,4.47,4.47,0,0,1,.16,1.79,5.11,5.11,0,0,1-.58,1.91,1.71,1.71,0,0,1-1.3,1,34.61,34.61,0,0,0-6.34,2.25q-2.34,1.17-4,2.09c-.48.31-.79.44-.93.4s-.14-.2,0-.45a6.79,6.79,0,0,1,.76-1A10.19,10.19,0,0,1,76,149.71q-1.89.54-3.75,1.14c-1.26.4-2.53.82-3.83,1.27a16,16,0,0,1-1.82,3.28q-1.47,2.23-3.83,5.47t-5.45,7.37q-3.09,4.11-6.6,8.92l-3,4.08a61.45,61.45,0,0,0,10.63-2.9,41.76,41.76,0,0,0,10.28-5.52,5.74,5.74,0,0,1,1.72-1c.36-.08.53,0,.51.2a2.36,2.36,0,0,1-.55,1,9.93,9.93,0,0,1-1.56,1.58,41.94,41.94,0,0,1-5.59,4,55.73,55.73,0,0,1-6.24,3.23c-2.15,1-4.3,1.79-6.44,2.51a61.76,61.76,0,0,1-6.17,1.72q-2.43,3.48-4.47,6.54t-3.63,5.38l-2.61,3.82c-.68,1-1.13,1.64-1.33,1.91a2,2,0,0,1-1.55.5,6.21,6.21,0,0,1-2.19-.45,6.08,6.08,0,0,1-2-1.31,2.67,2.67,0,0,1-.89-2,3.92,3.92,0,0,1,.7-1.34c.48-.73,1.15-1.68,2-2.86s1.88-2.53,3.06-4.07,2.44-3.21,3.82-5A7.34,7.34,0,0,1,33,187Z"/><path class="cls-1" d="M97.08,145.42c-.41.62-1.1,1.58-2.1,2.85s-2.17,2.76-3.53,4.44L87,158.15q-2.39,2.94-4.85,5.92t-4.81,5.81Q75,172.72,73.16,175L70,178.94,68.28,181a20.06,20.06,0,0,0-2.76,4.69c-.52,1.36-.55,2.14-.1,2.35s1.31,0,2.7-.77a37,37,0,0,0,5-3.33c2-1.49,4.09-3.3,6.41-5.45s4.65-4.49,7-7.06a7.06,7.06,0,0,1,1.26-1.09,6,6,0,0,1,1.21-.66c.32-.11.5-.09.54.07s-.15.49-.56,1l-8.46,10.28q-3.62,4.39-6.44,7.46a43.46,43.46,0,0,1-5,4.76,11.66,11.66,0,0,1-4.18,2.21,2.24,2.24,0,0,1-2.85-1,7.86,7.86,0,0,1-.68-4.47,27.75,27.75,0,0,1,1.61-6.9,43.44,43.44,0,0,1,4.1-8.37q.67-1.08,2.43-3.42t4-5.32c1.53-2,3.18-4.08,4.94-6.32s3.47-4.44,5.13-6.6,3.17-4.21,4.54-6.12,2.45-3.51,3.25-4.8a1.34,1.34,0,0,1,1.55-.57,5.88,5.88,0,0,1,2.14.89A7.16,7.16,0,0,1,96.77,144C97.23,144.59,97.33,145.05,97.08,145.42Z"/><path class="cls-1" d="M112.82,155.42a2.16,2.16,0,0,1,1.62-.72,4.38,4.38,0,0,1,1.85.33,3.52,3.52,0,0,1,1.35.95.74.74,0,0,1,0,1.1q-2.16,2.58-4.89,6.44t-6,9.11q-3,4.74-5.66,9.29t-4.68,8.35c-1.35,2.52-2.48,4.72-3.38,6.58a32.61,32.61,0,0,0-1.69,3.91q-.21.63-1.35,1a7.48,7.48,0,0,1-2.36.26,5.81,5.81,0,0,1-2.15-.53,1.2,1.2,0,0,1-.77-1.41q.33-1.42,3.93-7.17t10.17-15.69c.66-1,1.25-1.85,1.78-2.7s1.06-1.67,1.62-2.46c-1.14,1.21-2.44,2.73-3.9,4.54s-2.92,3.59-4.38,5.34-2.86,3.3-4.18,4.65a8.68,8.68,0,0,1-3.29,2.4,2.62,2.62,0,0,1-2.75-.65,6.56,6.56,0,0,1-1.62-3,12.93,12.93,0,0,1-.36-4.09,10.57,10.57,0,0,1,1-4,28,28,0,0,1,1.91-3.11c.89-1.29,1.86-2.67,2.93-4.14s2.18-3,3.36-4.48,2.28-2.9,3.34-4.15,1.95-2.3,2.7-3.15a8.91,8.91,0,0,1,1.52-1.51,1.65,1.65,0,0,1,1.4-.12,5.71,5.71,0,0,1,1.59.72,3,3,0,0,1,1.08,1.16,1.09,1.09,0,0,1-.12,1.24c-.76,1.06-1.78,2.32-3,3.78s-2.57,3-3.93,4.64-2.7,3.28-4,4.93S89,176.22,88,177.61a19.48,19.48,0,0,0-2,3.6c-.41,1-.38,1.67.09,2s1.16.05,2.25-.64a32.54,32.54,0,0,0,3.87-3q2.24-2,4.8-4.67c1.71-1.8,3.34-3.65,4.87-5.57l4.1-5.17,3.34-4.22c1-1.23,1.75-2.23,2.33-3S112.61,155.64,112.82,155.42Z"/><path class="cls-2" d="M131.22,175.13a5.06,5.06,0,0,1-2.55,1,15.34,15.34,0,0,1-3.4.24,5.53,5.53,0,0,1-2.5-.59c-.57-.35-.52-.85.15-1.51q2.89-2.85,6.84-7.15c2.64-2.87,5.43-6,8.36-9.33s5.93-6.81,9-10.37L156,137.17l7.87-9.16q3.62-4.2,6-6.86c.67-.78,1.32-1.49,1.94-2.13a12.75,12.75,0,0,1,1.81-1.6,3,3,0,0,1,2.07-.68,13.56,13.56,0,0,1,3.05.17,7.93,7.93,0,0,1,2.52.84c.66.39.84.79.54,1.22-1,1.35-2.4,3.19-4.12,5.52s-3.6,4.86-5.61,7.59-4,5.51-6,8.33-3.82,5.4-5.39,7.75-2.77,4.3-3.63,5.86-1.13,2.44-.78,2.64,1.4-.35,3.16-1.76,3.94-3.33,6.52-5.76,5.42-5.19,8.51-8.3,6.14-6.22,9.15-9.36,5.83-6.14,8.46-9,4.81-5.21,6.51-7.09q1.62-2,3.05-3.57A26.24,26.24,0,0,1,204,109.4a3.16,3.16,0,0,1,1.91-.67,8.38,8.38,0,0,1,2.46.12,5,5,0,0,1,1.88.73c.47.34.52.68.16,1q-1.09,1.14-3,3.42c-1.25,1.52-2.65,3.29-4.17,5.31s-3.15,4.22-4.84,6.59-3.38,4.76-5.05,7.18-3.23,4.77-4.68,7-2.69,4.36-3.7,6.25a41.38,41.38,0,0,0-2.25,4.83c-.5,1.33-.59,2.22-.28,2.69s.88.29,1.89-.32a29.09,29.09,0,0,0,3.84-2.9q2.33-2,5.29-5t6.3-6.52a11.38,11.38,0,0,1,1.68-1.59,2.48,2.48,0,0,1,1-.51c.22,0,.32.1.28.37a2.67,2.67,0,0,1-.51,1c-.31.39-.85,1.18-1.63,2.37s-1.72,2.58-2.8,4.16-2.28,3.25-3.57,5-2.59,3.41-3.87,4.94a48.58,48.58,0,0,1-3.65,3.93,7.9,7.9,0,0,1-2.94,2,3.59,3.59,0,0,1-2.74-.49,10.78,10.78,0,0,1-2.82-2.31,13.73,13.73,0,0,1-2.13-3.2,6.76,6.76,0,0,1-.76-3.21,8,8,0,0,1,.85-2.82c.55-1.23,1.3-2.69,2.24-4.35s2-3.47,3.25-5.43,2.55-4,4-6.08q-4.14,5.18-8.25,10.28t-7.73,9.28c-2.43,2.79-4.61,5.15-6.56,7.11a17.16,17.16,0,0,1-4.7,3.68,3.62,3.62,0,0,1-3-.09,6.59,6.59,0,0,1-2.66-2.3,9.67,9.67,0,0,1-1.5-3.79,8.29,8.29,0,0,1,.52-4.56c.19-.52.84-1.92,2-4.21s2.49-5,4.11-8.06l-7.76,10.78q-4,5.51-7.58,10.35T135.91,170A45.88,45.88,0,0,1,131.22,175.13Z"/><path class="cls-2" d="M254.4,114.86a6.91,6.91,0,0,1,2.41,1.76,3.26,3.26,0,0,1,.65,2.83A7.58,7.58,0,0,1,255.6,122a29.64,29.64,0,0,1-4.57,3.81,52.63,52.63,0,0,1-6.93,4,47.91,47.91,0,0,1-8.94,3.24,16.5,16.5,0,0,0-2,4.24c-.31,1.19-.15,1.94.49,2.27a3.76,3.76,0,0,0,2.77-.19,26,26,0,0,0,4.48-2.07q2.56-1.42,5.48-3.36c1.93-1.29,3.84-2.66,5.71-4.1s3.64-2.88,5.29-4.3a45.43,45.43,0,0,0,4.1-3.93c1.24-1.33,2.14-2,2.69-2.13s.47.39-.24,1.43a24.91,24.91,0,0,1-2.22,2.79c-1.14,1.3-2.49,2.77-4.07,4.43s-3.31,3.4-5.18,5.22-3.72,3.53-5.53,5.13-3.51,3-5.12,4.16a15.87,15.87,0,0,1-4,2.29,5,5,0,0,1-3.76-.11,9,9,0,0,1-3.15-2.3,11.48,11.48,0,0,1-2.11-3.5,7,7,0,0,1-.46-3.71c-1.6,1.73-3.43,3.63-5.48,5.72s-4.09,4-6.13,5.9-4,3.48-5.83,4.9a16.75,16.75,0,0,1-4.48,2.67,4.56,4.56,0,0,1-4-.36,9.33,9.33,0,0,1-3.12-3,12.68,12.68,0,0,1-1.74-4.21,6.74,6.74,0,0,1,.23-4,28.86,28.86,0,0,1,3.39-5.85,69.51,69.51,0,0,1,5.34-6.54,71.22,71.22,0,0,1,6-5.76,23.66,23.66,0,0,1,5.37-3.63,9,9,0,0,1,3.54-.68,7.56,7.56,0,0,1,3.89.92,7,7,0,0,1,2.41,1.76,3.3,3.3,0,0,1,.65,2.83,9.17,9.17,0,0,1-2.13,3,41.41,41.41,0,0,1-5.18,4.65,57.5,57.5,0,0,1-7.58,4.88,39.77,39.77,0,0,1-9.32,3.67A25.32,25.32,0,0,0,202,146.8c-.41,1.26-.3,2,.33,2.38a3.67,3.67,0,0,0,2.81-.26,31.29,31.29,0,0,0,4.56-2.18c1.73-1,3.58-2.16,5.55-3.52s3.9-2.78,5.82-4.26,3.72-3,5.36-4.42,3.05-2.8,4.19-4a41.4,41.4,0,0,1,3.46-4.76q2-2.46,4.26-4.65a48.94,48.94,0,0,1,4.48-3.9,21.7,21.7,0,0,1,4.2-2.6,8.93,8.93,0,0,1,3.53-.68A7.54,7.54,0,0,1,254.4,114.86ZM223,123.93a1.85,1.85,0,0,0-1.34-.09,5.9,5.9,0,0,0-1.62.68,19.09,19.09,0,0,0-3.29,2.43,51.8,51.8,0,0,0-3.74,3.7q-1.9,2.07-3.78,4.44t-3.39,4.58a21.54,21.54,0,0,0,3.45-1.9q2-1.29,4.09-2.94t4.05-3.41c1.31-1.17,2.44-2.28,3.4-3.31a15.1,15.1,0,0,0,2.06-2.69C223.28,124.67,223.32,124.17,223,123.93Zm29.1-6.57a1.83,1.83,0,0,0-1.33-.09,5.66,5.66,0,0,0-1.62.68,18.2,18.2,0,0,0-3.1,2.22,41,41,0,0,0-3.32,3.2c-1.11,1.18-2.21,2.43-3.28,3.75s-2,2.62-2.9,3.88a16,16,0,0,0,3.22-1.59q1.83-1.12,3.74-2.52c1.27-.93,2.49-1.91,3.67-2.92s2.2-2,3.06-2.87a12,12,0,0,0,1.83-2.36Q252.6,117.72,252.07,117.36Z"/><path class="cls-2" d="M261.55,106.1a6.38,6.38,0,0,0,2-.2c1-.2,2.22-.49,3.61-.87s2.84-.78,4.37-1.24,2.93-.91,4.23-1.36q2.3-3,4.27-5.76t3.25-4.89a1.46,1.46,0,0,1,1.54-.66,5.62,5.62,0,0,1,2.12.66,5.36,5.36,0,0,1,1.68,1.37c.42.53.51,1,.26,1.35-.36.53-.8,1.14-1.34,1.84s-1.16,1.52-1.87,2.44c1.19-.47,2.35-.94,3.48-1.43s2.19-.93,3.16-1.32,1.83-.69,2.56-.92a8,8,0,0,1,1.68-.38,2,2,0,0,1,1.63.71,3.75,3.75,0,0,1,.82,1.61,2,2,0,0,1-.23,1.53c-.28.43-.84.6-1.68.5a7.85,7.85,0,0,0-1.93.27c-1,.21-2.12.52-3.48.92s-2.85.88-4.48,1.41l-5.13,1.68c-1.38,1.75-2.85,3.59-4.41,5.54l-4.53,5.67q-2.19,2.75-4.06,5.19c-1.25,1.62-2.3,3-3.17,4.2-.66.91-1.24,1.77-1.74,2.59a19.8,19.8,0,0,0-1.18,2.21,7.35,7.35,0,0,0-.55,1.65c-.08.45,0,.72.22.82a2.54,2.54,0,0,0,1.65-.24,19,19,0,0,0,3-1.49q1.76-1,3.94-2.61a52.51,52.51,0,0,0,4.53-3.7c1.1-1,1.81-1.46,2.12-1.4s.25.5-.16,1.32a28.18,28.18,0,0,1-2.11,3.27,48.17,48.17,0,0,1-3.66,4.37,56.93,56.93,0,0,1-6.77,6.34,15.58,15.58,0,0,1-4.28,2.58c-1.41.4-2.4.05-2.94-1.07a8.35,8.35,0,0,1-.48-4.62,32.17,32.17,0,0,1,1.62-6.69,41.34,41.34,0,0,1,3.38-7.3,61.18,61.18,0,0,1,3.84-5.38c1.86-2.42,3.91-5.06,6.16-8l-4,1.36c-1.24.42-2.37.78-3.38,1.09s-1.85.55-2.53.72a5.29,5.29,0,0,1-1.36.23,1.69,1.69,0,0,1-1.46-.76,2.53,2.53,0,0,1-.44-1.49,2,2,0,0,1,.58-1.34A1.72,1.72,0,0,1,261.55,106.1Z"/></svg>
