<svg id="Livello_1" data-name="Livello 1" xmlns="http://www.w3.org/2000/svg" viewBox="0 0 247.83 165.89"><defs><style>.cls-1{fill:#fff;}.cls-2{fill:#c41e29;}.cls-3{fill:#1d1d1b;}.cls-4{fill:#8e1b23;}</style></defs><title>logocalenno</title><path d="M171.52,66.71s-20.05-10.2-36.44-9.58a58.57,58.57,0,0,0-26.49,6.12l-7,.17s2.38-8,9.86-8.16c0,0-16.64-2.62-22,7.25,0,0-6.41-11.12,11.71-18.82A10.2,10.2,0,0,0,90.29,49S86.89,40.5,97,36.85c0,0-8.71-1.82-14.39,8.17v6.13s1.58,4.18-8.78,4.49l-13,.08s3-5.09,10.67-6.28l-12.56-.12-10.19-5s-.24-1.3-8.3-.47c0,0,2.37-5.09,19-5.92,0,0,2.4-1.24-6.28-1.23,0,0-4.48-1.41-6-3,0,0,17.71.68,27.66-5.48,0,0,2.68-1.57-3.15-1L65,27.12l-4.3-2.52s13.2.24,26.89-9.6c0,0,2.92-4.46,30.29-3.23,0,0-3.28-3.74-16.29-2.72,0,0,10.24-6.21,21.72-3.51l3.89,1.26,1.64-.1L125.2,3.52S141.91-1.94,149,6.2c0,0,4-2.64-7.3-6.13,0,0,37.16-.91,39,15.25,0,0,1,8.67-4.84,9.83,0,0,2.81,13.22,6,11.18,0,0,3.74-4.65,6.13-1.93,0,0,8.82,13.17,11.07,13.78a6.39,6.39,0,0,0,5.7-2s4.52-.69,2.11,3.53c-1.81,2.29-8.32,11.33-8.32,11.33L196.25,61s-5.92-4.28-10.91-4.41l-1.84,1.56s4.86-6.36,1.19-10.35l-3.13-3.55S186.52,52,179,55c0,0-5.83,5.39-10.57-2.48,0,0-2.37,5.06,5.93,6.9,0,0,.79,1,13.82.55Z" transform="translate(-0.08 -0.06)"/><path class="cls-1" d="M147.18,27.4c-.57,0-5.53-.66-6.67-5.46a.53.53,0,0,1,0-.33c.36-1,2.19-6.4,1.62-11.28a.59.59,0,0,1,.85-.59c2,1,6.5,3.42,7.53,5.46a.58.58,0,0,0,.85.23c1.45-.92,5-2.65,7.18,1.19a2.51,2.51,0,0,1,.32,1.23v6.57c0,1.32.81,2.91,2.13,2.87,1.66-.06,4,.79,5.71-1.66a2.28,2.28,0,0,1,1.66-1c1.43-.11,3.57.56,3.4,5.68,0,0,0,8.11,1.75,8.38,0,0,7.07,2.45,11.23-2.53a.57.57,0,0,1,.5-.21c.67,0,2.23.42,3.29,2.7l0,.07c.4.58,6.74,9.91,9.08,10.62h.08c.41.07,3.68.58,5.85-.77a.59.59,0,0,1,.87.34c.34,1.32,0,4.71-7.11,12.07l-.1.09-1,.66a.59.59,0,0,1-.91-.4l-.13-.84a.6.6,0,0,1,.13-.46l5.76-7.17,0,0,.76-1.12a.59.59,0,0,0-.58-.92,15.44,15.44,0,0,1-3.08.19S194,50.79,187,38.73a.76.76,0,0,0-.11-.14c-.29-.24-1.46-1-3.29.56l-.06.05c-.57.34-8.06,4.83-11.81-.47a.44.44,0,0,1-.08-.15,32.5,32.5,0,0,1-1.73-10,1,1,0,0,0-.41-.85c-.58-.43-1.75-.76-4.56.8l-.21.08c-.72.2-3.58.85-5.74-.77a2,2,0,0,1-.86-1,22.73,22.73,0,0,1-.42-6.14,2.22,2.22,0,0,0-1.06-2h0a7.38,7.38,0,0,0-3.83-1.07h-2.05a3.08,3.08,0,0,1-1.84-.61l-2.2-1.61a.6.6,0,0,0-.93.36c-.41,2-1.23,6.93-.05,9,0,0,1,0,.87-2.75h.74v.65l3.61,0a.6.6,0,0,1,.59.56l0,.93a.59.59,0,0,1-.58.63l-2.4,0a.6.6,0,0,0-.58.63l0,.63a.61.61,0,0,0,.25.46l.84.6L149,28l-1.7-.54Z" transform="translate(-0.08 -0.06)"/><path class="cls-1" d="M174.81,60.68s-9.45.37-10.93-8.57c0,0,.74-2.51-2.81-2.88,0,0,3.18-1.26,4.29,1.84,0,0,2.14,9.06,8.64,9C174,60.09,174.44,59.35,174.81,60.68Z" transform="translate(-0.08 -0.06)"/><path class="cls-1" d="M167.94,33.39s.34-2.47-3.49-2.47c0,0-3.15.14-1.09,2.47,0,0-.21,3.56,1.95,3.56h3l.38,1.83h2s-.58-3-2.12-3h-1.91a2.89,2.89,0,0,1-.3-2.35Z" transform="translate(-0.08 -0.06)"/><circle class="cls-2" cx="200.24" cy="138.31" r="0.48"/><circle class="cls-2" cx="195.14" cy="139.82" r="0.77"/><path class="cls-2" d="M221.38,150.23s1.26,10.53,8.78,9.54c0,0,9.13,3.31,13.59-24.14,0,0,.51-10.79-4.78-7.9a23.16,23.16,0,0,0-2.38,2.25,32.9,32.9,0,0,0-4.4,6.19C230.26,139.65,224.8,147.53,221.38,150.23Z" transform="translate(-0.08 -0.06)"/><path class="cls-3" d="M.08,132.67a52.64,52.64,0,0,1,.9-9.5,31.62,31.62,0,0,1,3-8.92,19.41,19.41,0,0,1,5.45-6.62A13.31,13.31,0,0,1,17.76,105a12.93,12.93,0,0,1,3.16.35,9.14,9.14,0,0,1,2.33.9,12.55,12.55,0,0,1,1.68,1.09,11.88,11.88,0,0,1,1.17,1,4.34,4.34,0,0,0,.74.62,1.08,1.08,0,0,0,.58.24,1.26,1.26,0,0,0,1.17-.74,7.09,7.09,0,0,0,.62-2h1.64v18.3H29.21q-.54-3.1-1.32-6.42a29.14,29.14,0,0,0-2.06-6,13.73,13.73,0,0,0-3.24-4.36,7.06,7.06,0,0,0-4.83-1.71,7.46,7.46,0,0,0-4.87,1.55,10.21,10.21,0,0,0-3,4.79,35.45,35.45,0,0,0-1.52,8.22q-.44,5-.43,11.76t.47,11.64A38,38,0,0,0,10,152.53a10.84,10.84,0,0,0,3,4.91,7.1,7.1,0,0,0,4.79,1.63A9.38,9.38,0,0,0,22.47,158a10.49,10.49,0,0,0,3.39-3.12,15.91,15.91,0,0,0,2.22-4.67,39.32,39.32,0,0,0,1.29-5.88H31a33.36,33.36,0,0,1-1,5.33,18.56,18.56,0,0,1-2.26,5.26,12.73,12.73,0,0,1-3.93,4,11,11,0,0,1-6.08,1.56,13.31,13.31,0,0,1-8.37-2.61,19.28,19.28,0,0,1-5.45-6.66,32.11,32.11,0,0,1-3-9A52.64,52.64,0,0,1,.08,132.67Z" transform="translate(-0.08 -0.06)"/><path class="cls-3" d="M32.79,159.31V158h2a2.23,2.23,0,0,0,1.56-.66,6.5,6.5,0,0,0,1.24-3L49.15,105h1.79l12.62,53h3.82v1.33h-16V158H56l-3-13H41.28l-2.18,9.5a11.46,11.46,0,0,0-.23,1.17,7,7,0,0,0-.08.93,1.61,1.61,0,0,0,.31,1q.32.42,1.41.42H43.7v1.33Zm8.81-15.89H52.66l-5.22-23.21h-.32Z" transform="translate(-0.08 -0.06)"/><path class="cls-3" d="M98.14,140.61v18.7H72.36V158h4V107.36h-4V106h15v1.33h-4V158H88.1A6.14,6.14,0,0,0,93,156a12.35,12.35,0,0,0,2.57-4.75,26,26,0,0,0,1-5.73c.12-2,.19-3.61.19-4.91Z" transform="translate(-0.08 -0.06)"/><path class="cls-3" d="M128.13,140.61v18.7H102.35V158h4.05V107.36h-4.05V106h25.16v16.51H126.1q0-7.23-2.45-11.21t-6.27-4h-4V130.1h1.87a4.07,4.07,0,0,0,3.93-2.77,19,19,0,0,0,1.21-7.43h1.32v21.73h-1.32a18.49,18.49,0,0,0-1.21-7.28,4.07,4.07,0,0,0-3.93-2.77h-1.87V158h4.67a6.17,6.17,0,0,0,4.87-2,12.48,12.48,0,0,0,2.57-4.75,26.55,26.55,0,0,0,1-5.73c.13-2,.2-3.61.2-4.91Z" transform="translate(-0.08 -0.06)"/><path class="cls-3" d="M134.9,158h1.8a2.12,2.12,0,0,0,1.63-1.13,5.16,5.16,0,0,0,.55-2.53V108.37a3,3,0,0,0-.9-.74,3.13,3.13,0,0,0-1.44-.27H134.9V106h3c2.18,0,3.92,0,5.22.08a8.67,8.67,0,0,1,3.16.62,5.1,5.1,0,0,1,2,1.68,17.9,17.9,0,0,1,1.75,3.23l13,29.44h.31V110.71a5.52,5.52,0,0,0-.46-2.34,1.78,1.78,0,0,0-1.8-1h-3.19V106h10.75v1.33h-1.56a1.9,1.9,0,0,0-1.94,1,6.28,6.28,0,0,0-.47,2.61V160.4h-1.33l-22.74-49.54h-.31v43.46a5.09,5.09,0,0,0,.62,2.61,2,2,0,0,0,1.87,1h3v1.33H134.9Z" transform="translate(-0.08 -0.06)"/><path class="cls-3" d="M174.16,158H176a2.14,2.14,0,0,0,1.64-1.13,5.16,5.16,0,0,0,.54-2.53V108.37a3.11,3.11,0,0,0-.89-.74,3.14,3.14,0,0,0-1.45-.27h-1.63V106h3c2.18,0,3.92,0,5.22.08a8.61,8.61,0,0,1,3.15.62,5.13,5.13,0,0,1,2,1.68,19.25,19.25,0,0,1,1.75,3.23l13,29.44h.31V110.71a5.52,5.52,0,0,0-.47-2.34,1.77,1.77,0,0,0-1.79-1h-3.19V106h10.74v1.33h-1.55a1.91,1.91,0,0,0-2,1,6.45,6.45,0,0,0-.47,2.61V160.4h-1.32l-22.75-49.54h-.31v43.46a5.09,5.09,0,0,0,.62,2.61,2,2,0,0,0,1.88,1h3v1.33H174.16Z" transform="translate(-0.08 -0.06)"/><path class="cls-3" d="M212.56,132.67a52.61,52.61,0,0,1,.89-9.5,31.36,31.36,0,0,1,3-8.92,19.87,19.87,0,0,1,5.49-6.62,13.31,13.31,0,0,1,8.37-2.61,13.17,13.17,0,0,1,8.34,2.61,19.77,19.77,0,0,1,5.41,6.62,32,32,0,0,1,3,8.92,50.59,50.59,0,0,1,0,19,32.44,32.44,0,0,1-3,9,19.63,19.63,0,0,1-5.41,6.66,13.17,13.17,0,0,1-8.34,2.61,13.31,13.31,0,0,1-8.37-2.61,19.72,19.72,0,0,1-5.49-6.66,31.83,31.83,0,0,1-3-9A52.61,52.61,0,0,1,212.56,132.67Zm7.86,0q0,6.71.47,11.64a37.35,37.35,0,0,0,1.56,8.22,10.67,10.67,0,0,0,3,4.91,7.19,7.19,0,0,0,4.86,1.63,7.1,7.1,0,0,0,4.79-1.63,11,11,0,0,0,3-4.91,35.15,35.15,0,0,0,1.56-8.22q.42-4.94.43-11.64t-.43-11.76a36,36,0,0,0-1.52-8.22,10.29,10.29,0,0,0-3-4.79,7.42,7.42,0,0,0-4.87-1.55,7.57,7.57,0,0,0-4.9,1.55,10.11,10.11,0,0,0-3,4.79,36,36,0,0,0-1.52,8.22Q220.42,125.89,220.42,132.67Z" transform="translate(-0.08 -0.06)"/><path class="cls-4" d="M226.84,144.16s12-3.12,13.37-9.34v-7.58s-2-.08-6.84,6.68A113.7,113.7,0,0,0,226.84,144.16Z" transform="translate(-0.08 -0.06)"/><circle class="cls-2" cx="222.23" cy="137.16" r="0.94"/><circle class="cls-2" cx="221.05" cy="133.86" r="0.45"/><circle class="cls-2" cx="229.22" cy="136.86" r="0.31"/><circle class="cls-2" cx="230.15" cy="131.45" r="0.46"/><circle class="cls-2" cx="232.23" cy="127.94" r="1.21"/><circle class="cls-2" cx="228.48" cy="125.97" r="0.45"/><circle class="cls-2" cx="197.14" cy="102.04" r="1.75"/><circle class="cls-2" cx="193.4" cy="99.28" r="0.66"/><circle class="cls-2" cx="194.39" cy="105.2" r="0.66"/><circle class="cls-2" cx="155.41" cy="164.14" r="1.75"/><circle class="cls-2" cx="159.69" cy="161.9" r="0.66"/><circle class="cls-2" cx="154.35" cy="160.37" r="1.06"/><circle class="cls-2" cx="95.08" cy="137.53" r="1.75"/><circle class="cls-2" cx="97.35" cy="133.27" r="0.66"/><circle class="cls-2" cx="92.08" cy="135" r="1.06"/><circle class="cls-2" cx="130.29" cy="133.86" r="0.53"/><circle class="cls-2" cx="127.44" cy="130.91" r="0.66"/><circle class="cls-2" cx="130.61" cy="129.12" r="1.29"/><circle class="cls-2" cx="47.72" cy="139.33" r="0.81"/><circle class="cls-2" cx="46.74" cy="136.32" r="0.55"/><circle class="cls-2" cx="45.24" cy="137.62" r="0.25"/><circle class="cls-2" cx="16.52" cy="134.73" r="1.78"/><circle class="cls-2" cx="23.35" cy="136.23" r="0.99"/><circle class="cls-2" cx="20.71" cy="131.3" r="1.08"/></svg>