<svg id="Livello_1" data-name="Livello 1" xmlns="http://www.w3.org/2000/svg" viewBox="0 0 291.36 226.64"><defs><style>.cls-1,.cls-3{fill:#264653;}.cls-2{fill:#2a9c8e;}.cls-3{font-size:62.42px;font-family:AirwaysPERSONALUSEONLY, Airways PERSONAL USE ONLY;}</style></defs><title>logofly</title><path class="cls-1" d="M153.29,111.94s-22.64,7.46-74.79,15.18l-39.89,5.57a9.71,9.71,0,0,1-8.13-2.49c-1.92-1.84-3.23-4.66-1.42-8.79a13.5,13.5,0,0,1,9-7.49c5.37-1.42,13.51-4.92,9.49-12.68,0,0-6.56-17.41-36.27-42.74,0,0,12.6-7.89,67.94,36.48C79.26,95,103.25,115.69,153.29,111.94Z" transform="translate(-11.32 -2.68)"/><path class="cls-2" d="M88,91.54l68.19-18.39s16.73,18.53,21.11,21L148,57.32s-15.32,9.92-18.9,3.07c0,0-4.2-5.25,7.42-9.84l4.21-2.06S108.05,8.11,105.5,2.73c0,0,1.63-1.86,23.88,17.28l65.69,52.33L189,63.89s53.72-22.76,71.12-13c0,0-14.75,3.78-12,8.78,0,0,2.53,2.77,24.13-3.7,0,0,14.58,8.2,12.22,14.21,0,0-3.53,9.94-67.34,24.81,0,0-59.53,15-84.3,10.3C132.85,105.29,108,102.71,88,91.54Z" transform="translate(-11.32 -2.68)"/><text class="cls-3" transform="matrix(1.31, -0.37, 0.07, 1, 13.71, 202.23)">Fly<tspan class="cls-2" x="73.91" y="0">Meet</tspan></text></svg>