<svg id="Livello_1" data-name="Livello 1" xmlns="http://www.w3.org/2000/svg" viewBox="0 0 405.77 295.33"><title>logobunonly</title><path d="M75.27,177.46q5.81-.68,8.88,1.22a9.15,9.15,0,0,1,4.09,5,13.41,13.41,0,0,1,.26,6.88,20.47,20.47,0,0,1-2.61,6.75q-2.52,4.2-6.08,9.16t-7.87,10.12q-4.32,5.16-9.17,10.38t-10,9.85a6.21,6.21,0,0,1,3.35,1.29,10.4,10.4,0,0,1,2.54,2.75,16.86,16.86,0,0,1,1.64,3.33,12.91,12.91,0,0,1,.73,3.08q.36,2.72-1.49,7.13A59.16,59.16,0,0,1,54.25,264a105.62,105.62,0,0,1-8,10.53,95.23,95.23,0,0,1-9.64,9.81,64.14,64.14,0,0,1-10.37,7.47,26.8,26.8,0,0,1-10.18,3.59,10.17,10.17,0,0,1-5.81-.71A9,9,0,0,1,6.94,292a11.54,11.54,0,0,1-2.07-4.37A10.39,10.39,0,0,1,5,285.67a5.89,5.89,0,0,1,.48-1.73,2.3,2.3,0,0,1,.78-1c.28-.19.6-.11,1,.23A3.29,3.29,0,0,0,8,284.45a5.29,5.29,0,0,0,1.31.89,3.85,3.85,0,0,0,2.06.22,23.35,23.35,0,0,0,9.8-3.2,62,62,0,0,0,10.11-7.16A92.35,92.35,0,0,0,40.58,266a106.7,106.7,0,0,0,7.48-9.49,50.12,50.12,0,0,0,4.6-7.85q1.47-3.33.63-4.38c-.91-1.13-2.37-1.53-4.39-1.22a23.43,23.43,0,0,0-6.5,2.13,57.83,57.83,0,0,1-11.69,6.76q-1.16,2.9-2,5.41t-1.48,4.77c-.1.32-.24.93-.43,1.84s-.37,1.94-.53,3.11-.29,2.39-.35,3.67a19.43,19.43,0,0,0,.12,3.61c.24.81-.21,1.31-1.33,1.47a5.81,5.81,0,0,1-3.73-.89A10.26,10.26,0,0,1,17.34,271q-1.62-2.75-1-7.65a28.21,28.21,0,0,1,1.75-6.07q1.45-3.85,3.68-8.78t5-10.48q2.81-5.57,5.83-11.09t6-10.76q3-5.23,5.59-9.45-7.24,5.67-14.12,11.93t-12.35,12a104.1,104.1,0,0,0-8.95,10.59c-2.32,3.22-3.6,5.81-3.83,7.75a6.25,6.25,0,0,0,.12,2.75c.24.81.48,1.52.7,2.1a11,11,0,0,1,.46,1.51q.12.62-.6.93a2.07,2.07,0,0,1-2.26-.43,7.13,7.13,0,0,1-1.82-2.5,16.61,16.61,0,0,1-1.16-3.55A11,11,0,0,1,.23,246a21.79,21.79,0,0,1,2.92-7.82,77.5,77.5,0,0,1,6.65-9.81q4.09-5.25,9.38-11t11.18-11.19q5.91-5.46,12.11-10.5a144.17,144.17,0,0,1,12.15-8.88,98.22,98.22,0,0,1,11.27-6.37A30.84,30.84,0,0,1,75.27,177.46Zm3.34,8.6a30.39,30.39,0,0,0-9.13,3.42,117.68,117.68,0,0,0-12,7.31,12.74,12.74,0,0,1,3.57,2.88,2.17,2.17,0,0,1,0,3.17,89.79,89.79,0,0,0-6.68,8.09q-3.42,4.6-6.76,9.77t-6.54,10.72q-3.21,5.57-5.81,10.81a74.87,74.87,0,0,0,8.94-6.85q5.31-4.59,11-10.2T66.38,213.4q5.49-6.17,9.43-11.58a57.9,57.9,0,0,0,5.82-9.48q1.88-4.08.51-5.77A5.36,5.36,0,0,0,78.61,186.06Z" transform="translate(-0.13 -0.16)"/><path d="M86.67,216.47a8.65,8.65,0,0,1,3.2.32A10.26,10.26,0,0,1,93,218.21a6.77,6.77,0,0,1,2.07,2.18,2.26,2.26,0,0,1-.08,2.49q-7.5,8.94-13.2,17.08-2.47,3.53-4.77,7.18t-4,7.09a42,42,0,0,0-2.64,6.47,12.54,12.54,0,0,0-.64,5.2c.11.53.66.33,1.66-.59s2.31-2.3,4-4.15,3.49-4.05,5.53-6.63,4.14-5.26,6.28-8,4.22-5.58,6.24-8.39,3.82-5.33,5.38-7.59Q100.91,227,103,224t3.82-5.28q1.73-2.26,2.93-3.62c.8-.9,1.35-1.37,1.67-1.4a8.59,8.59,0,0,1,3.19.32,10.31,10.31,0,0,1,3.17,1.42,7,7,0,0,1,2.07,2.12,2.14,2.14,0,0,1-.08,2.43q-7.48,8.94-13.2,17.08-2.47,3.53-4.77,7.18a80.92,80.92,0,0,0-4,7.09,41.56,41.56,0,0,0-2.65,6.47,12.54,12.54,0,0,0-.64,5.2c.11.53.64.45,1.57-.24a29.87,29.87,0,0,0,3.66-3.36c1.51-1.55,3.19-3.42,5.05-5.59s3.75-4.49,5.67-6.94,3.79-4.93,5.6-7.44,3.37-4.89,4.7-7.12a.75.75,0,0,1,.83-.27,2.36,2.36,0,0,1,1,.52,5,5,0,0,1,.85.88.86.86,0,0,1,.22.84q-6.36,10.53-12.42,18.83-2.58,3.53-5.33,7c-1.83,2.28-3.62,4.34-5.38,6.15a39.21,39.21,0,0,1-5.07,4.51,9.59,9.59,0,0,1-4.3,2,4.15,4.15,0,0,1-2.65-.67,8.22,8.22,0,0,1-2.46-2.37,12.71,12.71,0,0,1-2.16-8.33,10.21,10.21,0,0,1,.24-1.47q.16-.76.36-1.71c-1.64,2.26-3.3,4.41-5,6.45s-3.31,3.84-4.86,5.4a30.71,30.71,0,0,1-4.44,3.8,8.69,8.69,0,0,1-3.75,1.64,4.15,4.15,0,0,1-2.65-.67,8.11,8.11,0,0,1-2.46-2.37,12.27,12.27,0,0,1-1.72-3.66,12.63,12.63,0,0,1-.44-4.67,25.36,25.36,0,0,1,2.14-7.34q1.91-4.53,4.74-9.82t6.14-10.68q3.3-5.39,6.3-9.77t5.23-7.17C85.23,217.48,86.21,216.52,86.67,216.47Z" transform="translate(-0.13 -0.16)"/><path d="M163.2,207.51a11,11,0,0,1,9.65,3.09,2.5,2.5,0,0,1,.32,3.13q-7.5,8.94-13.2,17.08-2.47,3.52-4.77,7.18a80.92,80.92,0,0,0-4,7.09,42.15,42.15,0,0,0-2.65,6.47,12.54,12.54,0,0,0-.64,5.2c0,.54.54.46,1.52-.23a29.17,29.17,0,0,0,3.72-3.37c1.5-1.55,3.18-3.42,5-5.59s3.75-4.49,5.67-6.94,3.79-4.93,5.59-7.45,3.38-4.88,4.71-7.11a.75.75,0,0,1,.83-.27,2.41,2.41,0,0,1,1.05.52,5.42,5.42,0,0,1,.85.88.85.85,0,0,1,.22.84q-6.36,10.53-12.42,18.83-2.58,3.52-5.33,7T154,260a38.34,38.34,0,0,1-5.07,4.5,9.52,9.52,0,0,1-4.3,2,4.21,4.21,0,0,1-2.65-.67,8.11,8.11,0,0,1-2.46-2.37,12.72,12.72,0,0,1-2.16-8.34,29.15,29.15,0,0,1,2.57-8.48,122.44,122.44,0,0,1,5.67-11.25q3.35-5.93,7-11.76t6.66-10a26.17,26.17,0,0,0-5.87,3.73,92.25,92.25,0,0,0-8.17,7.29q-4.44,4.37-9.12,9.81a112.59,112.59,0,0,0-8.55,11.24,82.73,82.73,0,0,0-6.5,11.64,33.19,33.19,0,0,0-3.06,11c.25.74-.17,1.19-1.25,1.35a6.66,6.66,0,0,1-3.8-.77,9.89,9.89,0,0,1-3.86-3.47c-1.14-1.63-1.59-3.93-1.36-6.87a17.78,17.78,0,0,1,1.07-4c.64-1.77,1.5-3.82,2.56-6.18s2.31-4.85,3.71-7.51,2.89-5.35,4.49-8.07,3.37-5.52,5.08-8.13,3.28-4.94,4.75-7,2.7-3.63,3.72-4.86,1.72-1.88,2.1-1.92a8.63,8.63,0,0,1,3.2.32,10.31,10.31,0,0,1,3.17,1.42,6.92,6.92,0,0,1,2.07,2.12,2.16,2.16,0,0,1-.08,2.43c-.92,1-1.85,2.1-2.78,3.21s-1.82,2.19-2.93,3.5-2.25,2.82-3.46,4.5a101.65,101.65,0,0,1,14.57-14Q156.57,208.51,163.2,207.51Z" transform="translate(-0.13 -0.16)"/><path d="M276.73,154.05q5.81-.68,8.68,1.59a10.06,10.06,0,0,1,3.68,5.8,17.46,17.46,0,0,1-.09,7.67,22.56,22.56,0,0,1-2.75,7.12q-2.64,4.22-6.44,9.39t-8.2,10.51q-4.39,5.34-9.12,10.56t-9.28,9.71q-4.56,4.51-8.63,8a42,42,0,0,1-7.08,5.08,90.84,90.84,0,0,0,3.7,8.51,64.71,64.71,0,0,0,4.45,7.67,31.39,31.39,0,0,0,5,5.81,11.77,11.77,0,0,0,5.46,2.94,15.06,15.06,0,0,0,7.61-.18,21.22,21.22,0,0,0,5-2.37,18.74,18.74,0,0,0,2.88-2.29c.63-.65,1.07-.68,1.33-.1a5.75,5.75,0,0,1,0,2.65,21.45,21.45,0,0,1-1.16,4.45,25.82,25.82,0,0,1-2.53,5.08,18.86,18.86,0,0,1-4,4.55,16,16,0,0,1-5.53,2.94,14.63,14.63,0,0,1-7.26.21,15.48,15.48,0,0,1-8.58-4.94,39,39,0,0,1-6.43-9.63,76.06,76.06,0,0,1-4.57-12q-1.84-6.42-3-12.16-3.31,7-5.81,13a65.18,65.18,0,0,0-3.39,10.07c-.1.32-.24.92-.43,1.78s-.36,1.89-.53,3.06-.28,2.39-.34,3.67a20.47,20.47,0,0,0,.11,3.62q.36,1.22-1.32,1.47a5.88,5.88,0,0,1-3.73-.89,10.38,10.38,0,0,1-3.66-3.84q-1.64-2.7-1-7.6a32.27,32.27,0,0,1,1.82-6.27q1.53-4.14,4-9.5t5.53-11.64q3.09-6.3,6.36-12.78l-.09-.22v-.23l.63-.65q4.6-8.84,9.12-17.07T245,182.61q-7.35,5.56-14.39,11.69T218,206.07a102.15,102.15,0,0,0-9.11,10.39q-3.54,4.72-3.89,7.65a6.25,6.25,0,0,0,.13,2.75c.24.82.47,1.52.7,2.11a9.84,9.84,0,0,1,.45,1.5.8.8,0,0,1-.59.93,2.09,2.09,0,0,1-2.27-.43,7.71,7.71,0,0,1-1.87-2.49,13,13,0,0,1-1.16-3.55,11.9,11.9,0,0,1-.09-3.85,21.19,21.19,0,0,1,3-7.78,79.4,79.4,0,0,1,6.75-9.71,139.69,139.69,0,0,1,9.6-10.73q5.45-5.52,11.51-10.89t12.37-10.19q6.3-4.83,12.36-8.63a91,91,0,0,1,11.42-6.22A32.67,32.67,0,0,1,276.73,154.05Zm3.35,8.6c-2.71.32-6.21,1.6-10.49,3.87a156.72,156.72,0,0,0-14.08,8.54,11.92,11.92,0,0,1,4.08,2.93c1.09,1.21,1.18,2.34.25,3.37a76.53,76.53,0,0,0-5.74,7.11q-3.1,4.28-6.33,9.43t-6.44,10.83q-3.21,5.67-6.2,11.43a99.66,99.66,0,0,0,9-7.2q5.39-4.71,11.25-10.58t11.49-12.1q5.61-6.24,9.79-11.79a64.58,64.58,0,0,0,6.23-9.66q2.06-4.1.68-5.66a2.27,2.27,0,0,0-1.5-.58A11.48,11.48,0,0,0,280.08,162.65Z" transform="translate(-0.13 -0.16)"/><path d="M280.46,194.07a8.65,8.65,0,0,1,3.2.32,10.26,10.26,0,0,1,3.16,1.42,6.67,6.67,0,0,1,2.07,2.18,2.26,2.26,0,0,1-.08,2.49q-7.5,8.93-13.2,17.08c-1.65,2.34-3.24,4.74-4.77,7.18s-2.88,4.81-4,7.09a42,42,0,0,0-2.64,6.47,12.52,12.52,0,0,0-.64,5.2c.11.53.66.33,1.66-.59s2.31-2.31,3.95-4.15,3.48-4,5.53-6.63,4.14-5.26,6.28-8,4.22-5.58,6.24-8.39,3.82-5.34,5.38-7.59,2.81-4.48,4.19-6.48,2.66-3.76,3.82-5.28,2.13-2.72,2.93-3.62,1.35-1.37,1.66-1.41a8.65,8.65,0,0,1,3.2.33,10.08,10.08,0,0,1,3.17,1.42,6.93,6.93,0,0,1,2.07,2.12,2.16,2.16,0,0,1-.08,2.43q-7.5,8.92-13.2,17.08c-1.65,2.34-3.24,4.74-4.77,7.18s-2.87,4.81-4,7.09a42.15,42.15,0,0,0-2.65,6.47,12.52,12.52,0,0,0-.64,5.2c.11.53.64.45,1.57-.24A29.87,29.87,0,0,0,293.5,237c1.51-1.56,3.19-3.42,5.05-5.6s3.75-4.48,5.67-6.93,3.78-4.93,5.59-7.45,3.38-4.88,4.71-7.11a.75.75,0,0,1,.83-.27,2.39,2.39,0,0,1,1,.51,5.48,5.48,0,0,1,.85.89.84.84,0,0,1,.22.83q-6.36,10.53-12.42,18.84-2.58,3.52-5.33,6.95t-5.38,6.16a39.08,39.08,0,0,1-5.07,4.5,9.63,9.63,0,0,1-4.3,2,4.16,4.16,0,0,1-2.65-.68,8,8,0,0,1-2.46-2.36A12.72,12.72,0,0,1,277.7,239a10.67,10.67,0,0,1,.24-1.47q.17-.76.36-1.71c-1.64,2.27-3.3,4.42-5,6.46s-3.31,3.84-4.86,5.4a30.71,30.71,0,0,1-4.44,3.8,8.81,8.81,0,0,1-3.75,1.64,4.21,4.21,0,0,1-2.65-.67,8.11,8.11,0,0,1-2.46-2.37,12.66,12.66,0,0,1-1.73-3.66,12.86,12.86,0,0,1-.43-4.67,25.52,25.52,0,0,1,2.13-7.34q1.92-4.54,4.75-9.82c1.89-3.52,3.94-7.09,6.14-10.68s4.3-6.85,6.3-9.78,3.74-5.31,5.23-7.17S280,194.12,280.46,194.07Z" transform="translate(-0.13 -0.16)"/><path d="M348,185.45a3,3,0,0,1,1.93.3,8.6,8.6,0,0,1,2.08,1.37,5.38,5.38,0,0,1,1.4,1.92,2,2,0,0,1-.1,1.91q-4.05,4.73-7.38,8.92-2.93,3.56-5.73,7.06a53.91,53.91,0,0,0-3.87,5.23q-.93,1.49-1.86,1a3.71,3.71,0,0,1-1.59-1.78,8.34,8.34,0,0,1-.8-3,4,4,0,0,1,.5-2.65l6.7-9.07q-2.81,1.93-6,4.44a59.8,59.8,0,0,0-5.88,5.23,32.78,32.78,0,0,0-4.46,5.53,9.72,9.72,0,0,0-1.75,5.33,4.48,4.48,0,0,0,1.87,4,33.8,33.8,0,0,0,4.38,2.72,47.7,47.7,0,0,1,4.62,2.75,5.62,5.62,0,0,1,2.57,3.85,11.69,11.69,0,0,1-.64,6.64,11.85,11.85,0,0,1-4.69,5.38,22,22,0,0,1-6,2.71,45.54,45.54,0,0,1-7.79,1.71,37.39,37.39,0,0,1-7.38.28q-3.44-.24-4.93-1.68a7.06,7.06,0,0,1-2.38-4.79,13.14,13.14,0,0,1,.62-4.91,12.84,12.84,0,0,1,2-3.86c.81-1.06,1.38-1.6,1.68-1.64s.43.2.35.71a5,5,0,0,0,.09,1.78,5.17,5.17,0,0,0,1,2.07,5.58,5.58,0,0,0,3.1,1.6,22,22,0,0,0,6.37.24,72.91,72.91,0,0,0,10.79-1.88,4.25,4.25,0,0,0,2.7-1.41,1.27,1.27,0,0,0-.27-1.75,10.81,10.81,0,0,0-3.83-1.75,25.21,25.21,0,0,1-6.09-2.93,17.16,17.16,0,0,1-5.27-5.38q-2.15-3.37-1.46-9.22.53-3.63,4-7.83a76.87,76.87,0,0,1,7.42-7.89,110.26,110.26,0,0,1,10.34-8.57,5.92,5.92,0,0,1,2.12-.59,11.14,11.14,0,0,1,2.7,0,10.7,10.7,0,0,1,2.81.77,9.42,9.42,0,0,1,2.47,1.5l2.84-3.9A1,1,0,0,1,348,185.45Z" transform="translate(-0.13 -0.16)"/><path d="M385.07,155.93a7.49,7.49,0,0,1,3.35.54,14.68,14.68,0,0,1,3.54,1.78,8.21,8.21,0,0,1,2.4,2.37,1.77,1.77,0,0,1-.06,2.31q-2.52,2.72-5.89,6.79t-7.1,9q-3.74,4.92-7.61,10.39t-7.54,10.95a110.36,110.36,0,0,1,9.23-10.57,42.58,42.58,0,0,1,9.2-7.23,14.57,14.57,0,0,1,8.23-2.16q3.76.32,6.42,4.61a4.67,4.67,0,0,1,.45,3.81,23.39,23.39,0,0,1-2.38,5.35q-1.8,3.15-4.79,7.47t-6.7,10.39c-.79,1.25-1.8,3-3.05,5.14s-2.41,4.31-3.5,6.39a38.34,38.34,0,0,0-2.38,5.41c-.51,1.52-.41,2.24.29,2.15a4.76,4.76,0,0,0,1.58-1.16c.83-.75,1.72-1.62,2.68-2.61s1.93-2,2.9-3.1,1.7-1.91,2.21-2.51q2-2.41,3.75-4.52t3.51-4.38c1.71-2.2,3.34-4.42,4.9-6.68s3-4.37,4.19-6.36a.75.75,0,0,1,.83-.27,3.07,3.07,0,0,1,1.11.51,3.52,3.52,0,0,1,.85.88.93.93,0,0,1,.16.85q-2.39,4-5,8.07-2.25,3.6-5.28,7.87t-6.25,8.32c-.34.5-1.11,1.5-2.3,3a55.83,55.83,0,0,1-4.16,4.57,59.58,59.58,0,0,1-4.83,4.3,9,9,0,0,1-4.31,2.17,5.67,5.67,0,0,1-3.52-.57,6.71,6.71,0,0,1-2.36-2.26,9,9,0,0,1-1.24-3.14,12.09,12.09,0,0,1-.2-3.32,28.39,28.39,0,0,1,2.1-8.37,76.46,76.46,0,0,1,4.2-8.72q2.42-4.32,5.15-8.38t4.9-7.3q2.16-3.25,3.43-5.53c.85-1.52,1.14-2.57.88-3.15s-1.68-.35-3.83,1.13a61.14,61.14,0,0,0-7.65,6.53,136.81,136.81,0,0,0-18.1,22.2A69.73,69.73,0,0,0,351.1,231a21.62,21.62,0,0,0-1.81,10.52c.25.74-.19,1.19-1.32,1.36a6.74,6.74,0,0,1-3.85-.76,9.92,9.92,0,0,1-3.86-3.48q-1.71-2.44-1.36-6.87a22.18,22.18,0,0,1,2.12-6.41q2-4.31,5.05-10T353.15,203q4-6.63,8.18-13.22t8.2-12.64q4-6.06,7.29-10.76c2.21-3.13,4.05-5.65,5.55-7.55S384.76,156,385.07,155.93Z" transform="translate(-0.13 -0.16)"/><path d="M335.64,24.7S331.48.46,299.52,9.54l-9.06,3.32S280.77-6.66,259,2.7c0,0-47.94,24.08-75.89,26.8,0,0-49.12,9-91.78-2.17,0,0-15.15-1.95-23,19.05,0,0-32-8.51-38.53,22.66a22.49,22.49,0,0,0,1.31,7.42C37.21,66.39,47.41,53.8,61.38,51.05a17.74,17.74,0,0,1,11.4,1.74c3.42,1.73,8,3.83,10.11,3.87,0,0,1.4,2.46,18-4.8,0,0,5.94-3.57,23.37,7.4,0,0,5.46,4.19,16.73-1.82,0,0,12.74-8.27,22.78-2.32,0,0,10,9.3,15.91,8.53,0,0,7,.13,16.5-11,0,0,6.62-7.57,11.92-8.8,0,0,12.29-2.57,17.73.71,0,0,10.1,1.32,15.86-4.9,0,0,9.74-11.33,16.14-12.18,0,0,6.77-2.89,16.83,2.65,0,0,8.55,3.36,15.68-5.76,0,0,9.22-11.38,14.46-12.27,0,0,5.93-1.43,6.86,3.48,0,0,2.39,4.45-6,6.54,0,0-5.81,4.36-14.38,14.07,0,0-10.21,7.65-22.5,1.75,0,0-6.55-6.13-16.3,3.41,0,0-9.83,13.89-25.58,12.84,0,0-14.84-6.25-23.66,4.15,0,0-10.64,15.76-28.61,14.25,0,0-9.09-2.55-15.16-9.62,0,0-6.13-3.31-18.67,4.63,0,0-13.51,5.61-28.67-4.22,0,0-2.84-5.8-19.1,0,0,0-6.66,5.31-20.6-.87a15.1,15.1,0,0,0-13.85.71c-5.34,3.22-12.85,9.66-21.88,22.48,5,5.2,13.71,9.76,28.64,10.38,0,0,1.07,14.49,5.3,18.87,0,0,10.46,15.78,35.43,19.91,0,0,2.14.38,5.72.89a23.75,23.75,0,0,0-.52,4.87c0,.14,0,.33,0,.54,0,.67,0,1.35,0,2s0,1.31.06,1.95a33,33,0,0,0,.59,4.24c.14.71.28,1.43.46,2.12A33.14,33.14,0,0,0,121,166.68a31,31,0,0,0,5.46,4.42,30.58,30.58,0,0,0,24.28,4.08,31.34,31.34,0,0,0,19.68-15.34,34.54,34.54,0,0,0,3.07-24.8,34,34,0,0,0-2.33-6.22,380.35,380.35,0,0,0,58.34-10.68,30.5,30.5,0,0,0,7.23,19.46,26.63,26.63,0,0,0,19.41,9.3,27.51,27.51,0,0,0,20.22-8.11c.05,0,.1-.12.15-.18a29.68,29.68,0,0,0,8.59-19.88,30.12,30.12,0,0,0-.23-4.65,32,32,0,0,0-.81-4.24,27.51,27.51,0,0,0-.89-2.75c-.2-.57-.43-1.13-.68-1.69a.82.82,0,0,0,0-.11c1.66-1,3.32-2.07,5-3.17,0,0,31.63-22.29,19.39-44.68C306.77,57.44,337.52,48.21,335.64,24.7ZM219.27,36.94C182.13,46.34,138,49.41,138,49.41a376.4,376.4,0,0,1-64-2.32A25.83,25.83,0,0,1,94.49,30.94c14,3,31.85,5.4,31.85,5.4,35.44,2.41,72.36-6.46,72.36-6.46,26.24-5.75,58.61-23.45,58.61-23.45C273.11.57,283.51,16,283.51,16,263,25.42,219.27,36.94,219.27,36.94ZM148.69,167.8a23,23,0,0,1-18.59-2.31c-.19-.1-.35-.24-.53-.35a26.44,26.44,0,0,1-11.06-15.26c-.17-.7-.31-1.42-.42-2.14a27.28,27.28,0,0,1-.35-4.86c0-.62.05-1.26.11-1.88a25.44,25.44,0,0,1,.5-3.47,25.76,25.76,0,0,1,2.61-7,20.82,20.82,0,0,1,1.33-2.11A23.38,23.38,0,0,1,135.88,119a22.2,22.2,0,0,1,8.43-.4,23.33,23.33,0,0,1,9.6,3.61c.14.1.27.23.41.34a23.87,23.87,0,0,1,4.11,3.54,26.07,26.07,0,0,1,3.39,4.61,25.46,25.46,0,0,1,2.77,6.59C168.19,149.57,161.12,164.17,148.69,167.8Zm121.63-34.87a20.11,20.11,0,0,1-8,5.28,18.91,18.91,0,0,1-6.07,1.07,19.22,19.22,0,0,1-8.32-1.83,19.55,19.55,0,0,1-6.08-4.42,20.45,20.45,0,0,1-5.47-15.21c0-.42.15-.82.19-1.24a20.74,20.74,0,0,1,.77-3.84,22.15,22.15,0,0,1,1.85-4.4,21.13,21.13,0,0,1,3.67-5c.05,0,.08-.1.13-.14a19.58,19.58,0,0,1,4.8-3.47,19.46,19.46,0,0,1,23.1,4.33c.44.51.79,1.09,1.19,1.64s.78,1,1.1,1.54a21,21,0,0,1,1.46,3.11,20.94,20.94,0,0,1,1.5,8.14A22.15,22.15,0,0,1,270.32,132.93Zm9.13-32.79c-.17-.21-.35-.4-.53-.6-.42-.53-.84-1.06-1.29-1.56a21.17,21.17,0,0,0-1.55-1.59C287.28,87.62,295.64,75.76,291,61c0,0-1.56,15.19-21.84,30.6a26,26,0,0,0-11.73-2.66,27.55,27.55,0,0,0-20,8.82c-.28.31-.54.65-.81,1,0,0-2,2.62-2,2.63a29.22,29.22,0,0,0-2.76,5.06,32.34,32.34,0,0,0-1.45,4.48c-5.12,1.42-15.06,4-20,5.07a278.73,278.73,0,0,1-42.94,7c-.77-1-1.72-2.16-2.79-3.31-.59-.6-1.78-1.75-1.75-1.77a22.92,22.92,0,0,0-7.26-4.61A30.66,30.66,0,0,0,118,122.61a167.12,167.12,0,0,1-16.86-2.85,96.24,96.24,0,0,0,15.06,5.47l.13,0,.12,0a29.91,29.91,0,0,0-2.76,5.06c-.07.16-.14.31-.2.47l-.08,0c-12.84-2.92-18.71-6.57-18.71-6.57C74.52,112.31,76.29,98.13,76.29,98.13,78.68,73.76,99,71.8,99,71.8c89.52,22.11,169.94-26.07,169.94-26.07,22.79-2,28.84,18.44,28.84,18.44C301.1,78.94,291.85,91,279.45,100.14Z" transform="translate(-0.13 -0.16)"/></svg>